<?xml version="1.0" encoding="UTF-8" standalone="no"?>
<svg xmlns="http://www.w3.org/2000/svg" viewBox="0 0 204.67 22.93" width="150" height="100%"><defs><style>.prefix__cls-1{fill:#fff}</style></defs><g id="prefix__Layer_2" data-name="Layer 2"><g id="prefix__Layer_1-2" data-name="Layer 1"><g id="prefix__Layer_2-2" data-name="Layer 2"><g id="prefix__Layer_2-2-2" data-name="Layer 2-2"><path class="prefix__cls-1" d="M79.59 3.71v18.75h-3.65V3.71h-4.11V.56h11.88v3.15zM98 22.46l-3.41-9.34h-2v9.34H89V.56h6.25a8.85 8.85 0 012.51.35 5.09 5.09 0 012 1.13A5.12 5.12 0 01101 4a7.74 7.74 0 01.47 2.82 7.07 7.07 0 01-.33 2.24 5.59 5.59 0 01-.82 1.66 4.42 4.42 0 01-1.12 1.08 3.81 3.81 0 01-1.2.58l3.93 10.08zM97.79 7a4.2 4.2 0 00-.28-1.64 2.75 2.75 0 00-.73-1 2.66 2.66 0 00-1-.52 4.21 4.21 0 00-1.12-.16h-2.1v6.72h2.1a3.12 3.12 0 002.25-.85A3.4 3.4 0 0097.79 7zM117.43 22.46l-1.08-4.64h-5.75l-1.12 4.64h-3.71l5.44-21.9H116l5.35 21.9zm-3.86-18.41h-.13l-2.38 10.86h4.83zM126.69 22.46V.56h3.71v21.9zM147.54 22.46L141.32 7h-.09l.06 15.47H138V.56h4.24l6.15 15.56h.1V.56h3.21v21.9zM159.17 22.46V.56h3.72v21.9zM180 22.46L173.81 7h-.09l.06 15.47h-3.34V.56h4.24l6.15 15.56h.1V.56h3.22v21.9zM202.32 22.43a9.43 9.43 0 01-3.29.5 7.16 7.16 0 01-6.11-3.16 11.41 11.41 0 01-1.64-3.62 17.48 17.48 0 01-.58-4.67 18.41 18.41 0 01.56-4.61 11.88 11.88 0 011.61-3.64 7.91 7.91 0 012.54-2.38 6.62 6.62 0 013.34-.85 7.53 7.53 0 013.37.7 6.14 6.14 0 012.32 2l-2.13 2.6A3.87 3.87 0 00199 3.47a3.14 3.14 0 00-2 .65 5 5 0 00-1.41 1.74 10.52 10.52 0 00-.84 2.56 17.49 17.49 0 00-.27 3.06 18.23 18.23 0 00.27 3.14 10.05 10.05 0 00.84 2.57 4.72 4.72 0 001.41 1.72 3.35 3.35 0 002 .61 4.65 4.65 0 001.34-.17 2.81 2.81 0 001-.44v-5.67h-2.67V10h6v11.13a7.63 7.63 0 01-2.35 1.3zM40.72 14.77a6.43 6.43 0 01-6.31 4.11 6.51 6.51 0 01-6.27-4.11 9.78 9.78 0 01-.7-3.74 8.56 8.56 0 011-4.14 6.62 6.62 0 016-3.44 6.53 6.53 0 015.47 2.66 7 7 0 01.8 1.41h4C43.38 3.05 39.47.67 34.41.67S25.72 3 24.26 6.89a11.38 11.38 0 00-.69 4 13.25 13.25 0 00.55 3.86c1.34 4.31 5.07 6.89 10.38 6.89 5.15 0 8.9-2.63 10.23-6.89zM57.72 18.49h3.22V21H50.29v-2.51h3.55V4.05h-3.55V1.23h7.43z"></path><ellipse class="prefix__cls-1" cx="9.39" cy="10.85" rx="2.48" ry="2.55" transform="rotate(-86.75 9.388 10.853)"></ellipse><ellipse class="prefix__cls-1" cx="16.22" cy="4.9" rx="2.48" ry="2.55" transform="rotate(-86.75 16.228 4.896)"></ellipse><ellipse class="prefix__cls-1" cx="2.55" cy="16.74" rx="2.48" ry="2.55" transform="rotate(-86.75 2.55 16.733)"></ellipse></g></g></g></g></svg>